# Blender 4.3.2
# www.blender.org
mtllib tall_ramp.mtl
o Cube
v -1.000000 -1.000000 1.000000
v -1.000000 -1.000000 -1.000000
v -1.000000 1.000000 -1.000000
v 1.000000 -1.000000 1.000000
v 1.000000 -1.000000 -1.000000
v 1.000000 1.000000 -1.000000
v -1.000000 1.000000 0.000000
v 1.000000 1.000000 0.000000
v -1.000000 6.000000 0.000000
v -1.000000 6.000000 -1.000000
v 1.000000 6.000000 -1.000000
v 1.000000 6.000000 0.000000
v 1.000000 0.123693 0.518246
v 1.000000 0.155672 0.464173
v 1.000000 0.190983 0.412215
v 1.000000 0.362576 0.229487
v 1.000000 0.229487 0.362576
v 1.000000 0.271031 0.315453
v 1.000000 0.315453 0.271031
v 1.000000 0.412215 0.190983
v 1.000000 0.690983 0.048943
v 1.000000 0.574221 0.095173
v 1.000000 0.937209 0.001973
v 1.000000 0.751310 0.031417
v 1.000000 0.812619 0.017713
v 1.000000 0.874667 0.007885
v 1.000000 0.518246 0.123693
v 1.000000 0.631875 0.070224
v 1.000000 0.464173 0.155672
v 1.000000 0.001973 0.937209
v 1.000000 0.000000 1.000000
v 1.000000 0.007885 0.874667
v 1.000000 0.017713 0.812619
v 1.000000 0.048943 0.690983
v 1.000000 0.095173 0.574221
v 1.000000 0.070224 0.631875
v 1.000000 0.031417 0.751310
v -1.000000 0.000000 1.000000
v -1.000000 0.001973 0.937209
v -1.000000 0.031417 0.751310
v -1.000000 0.017713 0.812619
v -1.000000 0.007885 0.874667
v -1.000000 0.095173 0.574221
v -1.000000 0.190983 0.412215
v -1.000000 0.155672 0.464173
v -1.000000 0.123693 0.518246
v -1.000000 0.070224 0.631875
v -1.000000 0.048943 0.690983
v -1.000000 0.271031 0.315453
v -1.000000 0.229487 0.362576
v -1.000000 0.362576 0.229487
v -1.000000 0.464173 0.155672
v -1.000000 0.412215 0.190983
v -1.000000 0.315453 0.271031
v -1.000000 0.574221 0.095173
v -1.000000 0.690983 0.048943
v -1.000000 0.631875 0.070224
v -1.000000 0.812619 0.017713
v -1.000000 0.937209 0.001973
v -1.000000 0.874667 0.007885
v -1.000000 0.751310 0.031417
v -1.000000 0.518246 0.123693
vn 1.0000 -0.0000 -0.0000
vn -0.0000 -0.0000 -1.0000
vn -0.0000 -0.0000 1.0000
vn -0.0000 -1.0000 -0.0000
vn -0.0000 1.0000 -0.0000
vn -1.0000 -0.0000 -0.0000
vn -0.0000 0.0314 0.9995
vn -0.0000 0.0941 0.9956
vn -0.0000 0.1564 0.9877
vn -0.0000 0.2181 0.9759
vn -0.0000 0.2790 0.9603
vn -0.0000 0.3387 0.9409
vn -0.0000 0.3971 0.9178
vn -0.0000 0.4540 0.8910
vn -0.0000 0.5090 0.8607
vn -0.0000 0.5621 0.8271
vn -0.0000 0.6129 0.7902
vn -0.0000 0.6613 0.7501
vn -0.0000 0.7071 0.7071
vn -0.0000 0.7501 0.6613
vn -0.0000 0.7902 0.6129
vn -0.0000 0.8271 0.5621
vn -0.0000 0.8607 0.5090
vn -0.0000 0.8910 0.4540
vn -0.0000 0.9178 0.3971
vn -0.0000 0.9409 0.3387
vn -0.0000 0.9603 0.2790
vn -0.0000 0.9759 0.2181
vn -0.0000 0.9877 0.1564
vn -0.0000 0.9956 0.0941
vn -0.0000 0.9995 0.0314
vt 0.378581 0.461449
vt 0.646390 0.317465
vt 0.387445 0.462852
vt 0.357143 0.317465
vt 0.357143 0.603179
vt 0.642857 0.603179
vt 0.642857 0.317465
vt 0.396203 0.464810
vt 0.404821 0.467314
vt 0.357143 0.460322
vt 0.642857 0.460322
vt 0.360676 0.460322
vt 0.360676 0.317465
vt 0.369646 0.460604
vt 0.503533 0.603179
vt 0.646390 0.603179
vt 0.646390 1.317465
vt 0.503533 1.317465
vt 0.357143 0.646390
vt 0.642857 0.646390
vt 0.642857 0.360676
vt 0.357143 0.360676
vt 0.357143 0.503533
vt 0.642857 0.503533
vt 0.357143 1.317465
vt 0.642857 1.317465
vt 0.642857 0.594209
vt 0.357143 0.594209
vt 0.642857 0.585274
vt 0.357143 0.585274
vt 0.642857 0.576410
vt 0.357143 0.576410
vt 0.642857 0.567652
vt 0.357143 0.567652
vt 0.642857 0.559034
vt 0.357143 0.559034
vt 0.642857 0.550590
vt 0.357143 0.550590
vt 0.642857 0.542354
vt 0.357143 0.542354
vt 0.642857 0.534357
vt 0.357143 0.534357
vt 0.642857 0.526632
vt 0.357143 0.526632
vt 0.642857 0.519210
vt 0.357143 0.519210
vt 0.642857 0.512119
vt 0.357143 0.512119
vt 0.642857 0.505387
vt 0.357143 0.505387
vt 0.642857 0.458469
vt 0.642857 0.464815
vt 0.357143 0.464815
vt 0.357143 0.458469
vt 0.642857 0.451737
vt 0.357143 0.451737
vt 0.357143 0.444646
vt 0.642857 0.444646
vt 0.642857 0.437223
vt 0.357143 0.437223
vt 0.642857 0.429498
vt 0.357143 0.429498
vt 0.642857 0.421502
vt 0.357143 0.421502
vt 0.642857 0.413265
vt 0.357143 0.413265
vt 0.642857 0.404821
vt 0.357143 0.404821
vt 0.642857 0.396203
vt 0.357143 0.396203
vt 0.642857 0.387445
vt 0.357143 0.387445
vt 0.642857 0.378581
vt 0.357143 0.378581
vt 0.642857 0.369646
vt 0.357143 0.369646
vt 0.413265 0.470354
vt 0.421502 0.473918
vt 0.429498 0.477993
vt 0.437223 0.482561
vt 0.444646 0.487605
vt 0.451737 0.493106
vt 0.458469 0.499041
vt 0.464815 0.505387
vt 0.470749 0.512119
vt 0.476250 0.519210
vt 0.481294 0.526632
vt 0.485863 0.534357
vt 0.489937 0.542354
vt 0.493501 0.550590
vt 0.496541 0.559034
vt 0.499045 0.567652
vt 0.501003 0.576410
vt 0.502407 0.585274
vt 0.503251 0.594209
s 0
f 32/1/1 5/2/1 33/3/1
f 2/4/2 3/5/2 6/6/2 5/7/2
f 37/8/1 5/2/1 34/9/1
f 38/10/3 1/4/3 4/7/3 31/11/3
f 31/12/1 4/13/1 5/2/1 30/14/1
f 8/15/1 6/16/1 11/17/1 12/18/1
f 5/2/1 32/1/1 30/14/1
f 37/8/1 33/3/1 5/2/1
f 2/19/4 5/20/4 4/21/4 1/22/4
f 11/20/5 10/19/5 9/23/5 12/24/5
f 3/16/6 7/15/6 9/18/6 10/17/6
f 6/6/2 3/5/2 10/25/2 11/26/2
f 7/5/3 8/6/3 12/26/3 9/25/3
f 23/27/7 8/6/7 7/5/7 59/28/7
f 26/29/8 23/27/8 59/28/8 60/30/8
f 25/31/9 26/29/9 60/30/9 58/32/9
f 24/33/10 25/31/10 58/32/10 61/34/10
f 21/35/11 24/33/11 61/34/11 56/36/11
f 28/37/12 21/35/12 56/36/12 57/38/12
f 22/39/13 28/37/13 57/38/13 55/40/13
f 27/41/14 22/39/14 55/40/14 62/42/14
f 29/43/15 27/41/15 62/42/15 52/44/15
f 20/45/16 29/43/16 52/44/16 53/46/16
f 16/47/17 20/45/17 53/46/17 51/48/17
f 19/49/18 16/47/18 51/48/18 54/50/18
f 18/51/19 19/52/19 54/53/19 49/54/19
f 17/55/20 18/51/20 49/54/20 50/56/20
f 44/57/21 15/58/21 17/55/21 50/56/21
f 14/59/22 15/58/22 44/57/22 45/60/22
f 13/61/23 14/59/23 45/60/23 46/62/23
f 35/63/24 13/61/24 46/62/24 43/64/24
f 36/65/25 35/63/25 43/64/25 47/66/25
f 34/67/26 36/65/26 47/66/26 48/68/26
f 37/69/27 34/67/27 48/68/27 40/70/27
f 33/71/28 37/69/28 40/70/28 41/72/28
f 32/73/29 33/71/29 41/72/29 42/74/29
f 30/75/30 32/73/30 42/74/30 39/76/30
f 31/21/31 30/75/31 39/76/31 38/22/31
f 34/9/1 5/2/1 36/77/1
f 36/77/1 5/2/1 35/78/1
f 35/78/1 5/2/1 13/79/1
f 14/80/1 13/79/1 5/2/1
f 15/81/1 14/80/1 5/2/1
f 17/82/1 15/81/1 5/2/1
f 18/83/1 17/82/1 5/2/1
f 19/84/1 18/83/1 5/2/1
f 19/84/1 5/2/1 16/85/1
f 20/86/1 16/85/1 5/2/1
f 29/87/1 20/86/1 5/2/1
f 29/87/1 5/2/1 27/88/1
f 27/88/1 5/2/1 22/89/1
f 28/90/1 22/89/1 5/2/1
f 28/90/1 5/2/1 21/91/1
f 24/92/1 21/91/1 5/2/1
f 25/93/1 24/92/1 5/2/1
f 26/94/1 25/93/1 5/2/1
f 26/94/1 5/2/1 23/95/1
f 5/2/1 6/16/1 8/15/1 23/95/1
f 7/15/6 3/16/6 2/2/6 59/95/6
f 59/95/6 2/2/6 60/94/6
f 60/94/6 2/2/6 58/93/6
f 61/92/6 58/93/6 2/2/6
f 61/92/6 2/2/6 56/91/6
f 57/90/6 56/91/6 2/2/6
f 57/90/6 2/2/6 55/89/6
f 62/88/6 55/89/6 2/2/6
f 62/88/6 2/2/6 52/87/6
f 53/86/6 52/87/6 2/2/6
f 53/86/6 2/2/6 51/85/6
f 54/84/6 51/85/6 2/2/6
f 54/84/6 2/2/6 49/83/6
f 50/82/6 49/83/6 2/2/6
f 50/82/6 2/2/6 44/81/6
f 45/80/6 44/81/6 2/2/6
f 46/79/6 45/80/6 2/2/6
f 46/79/6 2/2/6 43/78/6
f 47/77/6 43/78/6 2/2/6
f 48/9/6 47/77/6 2/2/6
f 48/9/6 2/2/6 40/8/6
f 41/3/6 40/8/6 2/2/6
f 42/1/6 41/3/6 2/2/6
f 42/1/6 2/2/6 39/14/6
f 1/13/6 38/12/6 39/14/6 2/2/6
